<?xml version="1.0" standalone="no"?><!DOCTYPE svg PUBLIC "-//W3C//DTD SVG 1.1//EN" "http://www.w3.org/Graphics/SVG/1.1/DTD/svg11.dtd"><svg t="1658823748240" class="icon" viewBox="0 0 1024 1024" version="1.1" xmlns="http://www.w3.org/2000/svg" p-id="2269" xmlns:xlink="http://www.w3.org/1999/xlink" width="200" height="200"><defs><style type="text/css">@font-face { font-family: feedback-iconfont; src: url("//at.alicdn.com/t/font_1031158_u69w8yhxdu.woff2?t=1630033759944") format("woff2"), url("//at.alicdn.com/t/font_1031158_u69w8yhxdu.woff?t=1630033759944") format("woff"), url("//at.alicdn.com/t/font_1031158_u69w8yhxdu.ttf?t=1630033759944") format("truetype"); }
</style></defs><path d="M468.394667 936.448a427.861333 427.861333 0 0 1-42.368-6.485333 431.488 431.488 0 0 1-80.085334-24.832 426.666667 426.666667 0 0 1-72.533333-39.338667 429.653333 429.653333 0 0 1-63.146667-52.096 429.568 429.568 0 0 1-52.096-63.146667 426.666667 426.666667 0 0 1-39.338666-72.533333 418.602667 418.602667 0 0 1-24.832-80.085333 418.858667 418.858667 0 0 1-6.442667-42.368A432.981333 432.981333 0 0 1 85.333333 512a432.938667 432.938667 0 0 1 2.218667-43.605333 418.56 418.56 0 0 1 31.274667-122.453334 426.666667 426.666667 0 0 1 39.338666-72.533333 429.610667 429.610667 0 0 1 52.096-63.146667 429.696 429.696 0 0 1 63.146667-52.096 426.666667 426.666667 0 0 1 72.533333-39.338666 418.602667 418.602667 0 0 1 80.085334-24.832 427.605333 427.605333 0 0 1 42.368-6.485334A433.493333 433.493333 0 0 1 512 85.333333a433.493333 433.493333 0 0 1 43.605333 2.218667 427.605333 427.605333 0 0 1 42.368 6.485333 431.488 431.488 0 0 1 80.085334 24.832 426.666667 426.666667 0 0 1 72.533333 39.338667 429.653333 429.653333 0 0 1 63.146667 52.096 429.568 429.568 0 0 1 52.096 63.146667 426.666667 426.666667 0 0 1 39.338666 72.533333 418.602667 418.602667 0 0 1 24.832 80.085333 427.050667 427.050667 0 0 1 6.442667 42.368A432.981333 432.981333 0 0 1 938.666667 512a433.024 433.024 0 0 1-2.218667 43.605333 427.050667 427.050667 0 0 1-6.442667 42.368 431.488 431.488 0 0 1-24.832 80.085334 426.666667 426.666667 0 0 1-39.338666 72.533333 429.568 429.568 0 0 1-52.096 63.146667 429.653333 429.653333 0 0 1-63.146667 52.096 426.666667 426.666667 0 0 1-72.533333 39.338666 418.602667 418.602667 0 0 1-80.085334 24.832 427.861333 427.861333 0 0 1-42.368 6.485334A433.493333 433.493333 0 0 1 512 938.666667a433.493333 433.493333 0 0 1-43.605333-2.218667zM145.066667 512a367.36 367.36 0 0 0 366.933333 366.933333 367.36 367.36 0 0 0 366.933333-366.933333A367.36 367.36 0 0 0 512 145.066667 367.36 367.36 0 0 0 145.066667 512z m337.066666 213.333333v-183.466666H298.666667v-59.733334h183.466666V298.666667h59.733334v183.466666H725.333333v59.733334h-183.466666V725.333333z" p-id="2270"></path></svg>