<?xml version="1.0" standalone="no"?><!DOCTYPE svg PUBLIC "-//W3C//DTD SVG 1.1//EN" "http://www.w3.org/Graphics/SVG/1.1/DTD/svg11.dtd"><svg t="1665029329065" class="icon" viewBox="0 0 1024 1024" version="1.1" xmlns="http://www.w3.org/2000/svg" p-id="3497" xmlns:xlink="http://www.w3.org/1999/xlink" width="200" height="200"><path d="M422.9632 882.944c-7.3728 0-14.848-1.4848-21.9648-4.4544a56.26368 56.26368 0 0 1-34.4064-52.0704l0.3072-91.4432c0-1.7408-0.8192-2.9184-1.4848-3.6352a5.12 5.12 0 0 0-3.6352-1.4848H181.4528c-31.0784 0-56.32-25.2416-56.32-56.32V261.12c0-31.0784 25.2416-56.32 56.32-56.32h664.064c31.0784 0 56.32 25.2416 56.32 56.32v412.416c0 31.0784-25.2416 56.32-56.32 56.32h-241.0496c-1.3312 0-2.6112 0.512-3.584 1.4848l-138.5984 135.5264c-10.752 10.5472-24.9344 16.0768-39.3216 16.0768zM181.4528 256c-2.816 0-5.12 2.304-5.12 5.12v412.416c0 2.816 2.304 5.12 5.12 5.12h180.2752c15.104 0 29.2352 5.888 39.8848 16.5376s16.4864 24.8832 16.4352 39.936l-0.3072 91.4432c0 0.8192 0 3.4304 3.1232 4.7104 3.1232 1.3312 4.9664-0.4608 5.5808-1.0752l138.5984-135.5264c10.5984-10.3424 24.576-16.0768 39.3728-16.0768h241.0496c2.816 0 5.12-2.304 5.12-5.12V261.12c0-2.816-2.304-5.12-5.12-5.12H181.4528z" fill="#888888" p-id="3498"></path><path d="M258.6112 445.44h109.824v71.68H258.6112zM456.4992 445.44h109.824v71.68H456.4992zM654.3872 445.44h109.824v71.68h-109.824z" fill="#888888" p-id="3499"></path></svg>