<?xml version="1.0" standalone="no"?><!DOCTYPE svg PUBLIC "-//W3C//DTD SVG 1.1//EN" "http://www.w3.org/Graphics/SVG/1.1/DTD/svg11.dtd"><svg t="1665029402369" class="icon" viewBox="0 0 1024 1024" version="1.1" xmlns="http://www.w3.org/2000/svg" p-id="1006" xmlns:xlink="http://www.w3.org/1999/xlink" width="200" height="200"><path d="M450.9184 479.32928l8.79616-8.80128V10.24l-35.37408 6.39488A497.152 497.152 0 0 0 15.36 506.0864c0 95.36 47.4624 224.98304 90.07104 281.68192l21.23776 28.25728 24.46336-25.51808c5.81632-6.06208 16.74752-17.5616 31.31392-32.90624 60.94336-64.16384 187.72992-197.6832 268.47232-278.272z m-312.04864 237.056l-4.352 4.608C105.984 666.86464 75.40736 576.512 75.40736 506.0864A437.16096 437.16096 0 0 1 399.6672 83.51744v362.24c-81.41824 81.73056-201.84576 208.5376-260.80256 270.61248z m842.50624-204.288l-479.616 0.1536h-12.35968l-8.78592 8.704c-11.91424 11.81184-69.20704 71.68-135.54176 140.9536-68.99712 72.07424-140.34944 146.60608-164.98176 171.57632l-22.07232 22.38976 23.45472 20.95104A498.08384 498.08384 0 0 0 513.75616 1003.52c259.35872 0 477.91104-201.728 497.55648-459.20256l2.45248-32.256h-32.39424zM513.75616 943.616a438.10304 438.10304 0 0 1-268.17536-91.39712c33.59232-34.71872 88.94464-92.55424 142.88384-148.8896 53.52448-55.9104 104.54528-109.19936 125.8752-131.1232l433.41824-0.15872c-32.12288 210.80064-216.79616 371.56864-434.00192 371.56864z" fill="#074D9C" p-id="1007"></path><path d="M1014.272 467.28192H509.28128V9.51808l31.60576 1.59744A500.5824 500.5824 0 0 1 1008.88576 432.64z m-444.81536-60.1088H942.592a440.73984 440.73984 0 0 0-373.15584-333.28128v333.28128z" fill="#F8B62D" p-id="1008"></path></svg>