<?xml version="1.0" standalone="no"?><!DOCTYPE svg PUBLIC "-//W3C//DTD SVG 1.1//EN" "http://www.w3.org/Graphics/SVG/1.1/DTD/svg11.dtd"><svg t="1665029406607" class="icon" viewBox="0 0 1024 1024" version="1.1" xmlns="http://www.w3.org/2000/svg" p-id="1146" xmlns:xlink="http://www.w3.org/1999/xlink" width="200" height="200"><path d="M1008.64 383.53408a99.43552 99.43552 0 0 0-68.89984-94.48448l-31.65184-118.09792A99.328 99.328 0 0 0 786.432 100.736L95.44192 285.81888c-0.72192 0.19456-1.35168 0.512-2.048 0.77312A99.4304 99.4304 0 0 0 15.36 383.53408v443.904A99.42016 99.42016 0 0 0 114.688 926.72h794.624a99.42016 99.42016 0 0 0 99.328-99.29216v-443.904z m-207.0784-226.3808a40.88832 40.88832 0 0 1 50.08384 28.91264l26.31168 98.176H327.10656z m107.7504 711.168H114.688a40.96 40.96 0 0 1-40.89856-40.8832v-443.904a40.96 40.96 0 0 1 40.89856-40.88832h794.624a40.96 40.96 0 0 1 40.89856 40.8832v443.904a40.96 40.96 0 0 1-40.89856 40.87808z" fill="#074D9C" p-id="1147"></path><path d="M638.27456 440.71936l-63.72352 136.064h56.89856v55.7056h-80.56832l-6.36928 12.8v15.97952h86.9376v55.7056h-86.9376V777.216H470.31808v-60.25728H382.9248v-55.7056h87.39328v-15.97952l-5.00736-12.8H382.9248v-55.7056h65.9968L385.65376 440.71936h76.4672l49.152 132.41344h0.90624l50.97984-132.41344h75.10528z" fill="#F8B62D" p-id="1148"></path></svg>