<?xml version="1.0" standalone="no"?><!DOCTYPE svg PUBLIC "-//W3C//DTD SVG 1.1//EN" "http://www.w3.org/Graphics/SVG/1.1/DTD/svg11.dtd"><svg t="1658822811183" class="icon" viewBox="0 0 1024 1024" version="1.1" xmlns="http://www.w3.org/2000/svg" p-id="1998" xmlns:xlink="http://www.w3.org/1999/xlink" width="200" height="200"><defs><style type="text/css">@font-face { font-family: feedback-iconfont; src: url("//at.alicdn.com/t/font_1031158_u69w8yhxdu.woff2?t=1630033759944") format("woff2"), url("//at.alicdn.com/t/font_1031158_u69w8yhxdu.woff?t=1630033759944") format("woff"), url("//at.alicdn.com/t/font_1031158_u69w8yhxdu.ttf?t=1630033759944") format("truetype"); }
</style></defs><path d="M512 21.942857c-272.457143 0-493.714286 221.257143-493.714286 493.714286s221.257143 493.714286 493.714286 493.714286 493.714286-221.257143 493.714286-493.714286-221.257143-493.714286-493.714286-493.714286z m190.171429 519.314286l-219.428572 219.428571c-7.314286 7.314286-16.457143 10.971429-25.6 10.971429-5.485714 0-9.142857 0-14.628571-3.657143-12.8-5.485714-21.942857-18.285714-21.942857-32.914286v-438.857143c0-14.628571 9.142857-27.428571 21.942857-32.914285 12.8-5.485714 29.257143-1.828571 40.228571 7.314285l219.428572 219.428572c14.628571 12.8 14.628571 36.571429 0 51.2z" fill="#4C4C4C" p-id="1999"></path></svg>