<?xml version="1.0" standalone="no"?><!DOCTYPE svg PUBLIC "-//W3C//DTD SVG 1.1//EN" "http://www.w3.org/Graphics/SVG/1.1/DTD/svg11.dtd"><svg t="1665029321164" class="icon" viewBox="0 0 1024 1024" version="1.1" xmlns="http://www.w3.org/2000/svg" p-id="3335" xmlns:xlink="http://www.w3.org/1999/xlink" width="200" height="200"><path d="M382.5152 455.3216H165.632c-28.2112 0-51.2-22.9888-51.2-51.2V187.2896c0-28.2112 22.9888-51.2 51.2-51.2H382.464c28.2112 0 51.2 22.9888 51.2 51.2v216.832c0.0512 28.2624-22.9376 51.2-51.1488 51.2zM165.632 177.0496c-5.632 0-10.24 4.608-10.24 10.24v216.832c0 5.632 4.608 10.24 10.24 10.24H382.464c5.632 0 10.24-4.608 10.24-10.24V187.2896c0-5.632-4.608-10.24-10.24-10.24H165.632zM382.5152 855.1424H165.632c-28.2112 0-51.2-22.9888-51.2-51.2v-216.832c0-28.2112 22.9888-51.2 51.2-51.2H382.464c28.2112 0 51.2 22.9888 51.2 51.2v216.832c0.0512 28.2624-22.9376 51.2-51.1488 51.2z m-216.8832-278.272c-5.632 0-10.24 4.608-10.24 10.24v216.832c0 5.632 4.608 10.24 10.24 10.24H382.464c5.632 0 10.24-4.608 10.24-10.24v-216.832c0-5.632-4.608-10.24-10.24-10.24H165.632zM783.104 455.3216H566.272c-28.2112 0-51.2-22.9888-51.2-51.2V187.2896c0-28.2112 22.9888-51.2 51.2-51.2h216.832c28.2112 0 51.2 22.9888 51.2 51.2v216.832c0 28.2624-22.9888 51.2-51.2 51.2z m-216.8832-278.272c-5.632 0-10.24 4.608-10.24 10.24v216.832c0 5.632 4.608 10.24 10.24 10.24h216.832c5.632 0 10.24-4.608 10.24-10.24V187.2896c0-5.632-4.608-10.24-10.24-10.24h-216.832zM687.104 869.9392c-96.1536 0-174.4384-78.2336-174.4384-174.4384s78.2336-174.4384 174.4384-174.4384 174.4384 78.2336 174.4384 174.4384-78.2336 174.4384-174.4384 174.4384z m0-307.8656c-73.5744 0-133.4784 59.8528-133.4784 133.4784s59.8528 133.4784 133.4784 133.4784 133.4784-59.8528 133.4784-133.4784-59.8528-133.4784-133.4784-133.4784z" fill="#888888" p-id="3336"></path><path d="M883.1488 903.4752c-4.864 0-9.728-1.6896-13.6192-5.1712l-78.4384-69.8368a20.49024 20.49024 0 0 1 27.2384-30.6176l78.4384 69.8368a20.49024 20.49024 0 0 1-13.6192 35.7888z" fill="#888888" p-id="3337"></path></svg>