<?xml version="1.0" standalone="no"?><!DOCTYPE svg PUBLIC "-//W3C//DTD SVG 1.1//EN" "http://www.w3.org/Graphics/SVG/1.1/DTD/svg11.dtd"><svg t="1665029701563" class="icon" viewBox="0 0 1024 1024" version="1.1" xmlns="http://www.w3.org/2000/svg" p-id="2509" xmlns:xlink="http://www.w3.org/1999/xlink" width="200" height="200"><path d="M384 810.666667h-85.333333a85.333333 85.333333 0 0 1-85.333334-85.333334V298.666667a85.333333 85.333333 0 0 1 85.333334-85.333334h426.666666a85.333333 85.333333 0 0 1 85.333334 85.333334v426.666666a85.333333 85.333333 0 0 1-85.333334 85.333334H384z" fill="#000000" p-id="2510"></path><path d="M426.666667 85.333333v85.333334h170.666666V85.333333h85.333334v85.333334h42.666666a128 128 0 0 1 128 128v42.666666h85.333334v85.333334h-85.333334v170.666666h85.333334v85.333334h-85.333334v42.666666a128 128 0 0 1-128 128h-42.666666v85.333334h-85.333334v-85.333334h-170.666666v85.333334h-85.333334v-85.333334h-42.666666a128 128 0 0 1-128-128v-42.666666H85.333333v-85.333334h85.333334v-170.666666H85.333333v-85.333334h85.333334v-42.666666a128 128 0 0 1 128-128h42.666666V85.333333h85.333334z m-128 170.666667a42.666667 42.666667 0 0 0-42.666667 42.666667v426.666666a42.666667 42.666667 0 0 0 42.666667 42.666667h426.666666a42.666667 42.666667 0 0 0 42.666667-42.666667V298.666667a42.666667 42.666667 0 0 0-42.666667-42.666667H298.666667z" fill="#000000" p-id="2511"></path><path d="M405.333333 405.333333h213.333334v213.333334H405.333333V405.333333z" fill="#FFFFFF" p-id="2512"></path><path d="M362.666667 405.333333a42.666667 42.666667 0 0 1 42.666666-42.666666h213.333334a42.666667 42.666667 0 0 1 42.666666 42.666666v213.333334a42.666667 42.666667 0 0 1-42.666666 42.666666H405.333333a42.666667 42.666667 0 0 1-42.666666-42.666666V405.333333z m85.333333 42.666667v128h128v-128h-128z" fill="#FFFFFF" p-id="2513"></path></svg>