<?xml version="1.0" standalone="no"?><!DOCTYPE svg PUBLIC "-//W3C//DTD SVG 1.1//EN" "http://www.w3.org/Graphics/SVG/1.1/DTD/svg11.dtd"><svg t="1665029578252" class="icon" viewBox="0 0 1024 1024" version="1.1" xmlns="http://www.w3.org/2000/svg" p-id="1310" xmlns:xlink="http://www.w3.org/1999/xlink" width="200" height="200"><path d="M910.08 822l-134.4-77.6a3.952 3.952 0 0 0-5.92 3.44v155.16c0 3.04 3.28 4.96 5.92 3.44l134.4-77.6a3.944 3.944 0 0 0 0-6.84z" fill="#3A4ED0" p-id="1311"></path><path d="M797.6 849.4h-128.4c-52.68 0-95.52-42.84-95.52-95.52 0-13.24 10.76-24 24-24s24 10.76 24 24c0 26.2 21.32 47.52 47.52 47.52h128.36c13.24 0 24 10.76 24 24s-10.72 24-23.96 24zM599.68 632.84l134.4 77.6c2.64 1.52 5.92-0.4 5.92-3.44v-155.16c0-3.04-3.28-4.96-5.92-3.44l-134.4 77.6a3.944 3.944 0 0 0 0 6.84z" fill="#3A4ED0" p-id="1312"></path><path d="M912.04 724.92c-13.24 0-24-10.76-24-24 0-26.2-21.32-47.52-47.52-47.52h-128.36c-13.24 0-24-10.76-24-24s10.76-24 24-24h128.36c52.68 0 95.52 42.84 95.52 95.52 0 13.24-10.76 24-24 24z" fill="#3A4ED0" p-id="1313"></path><path d="M509.16 377c-167.04 0-346.84-35.64-346.84-113.88s179.8-113.88 346.84-113.88S856 184.84 856 263.12s-179.8 113.88-346.84 113.88z m0-179.76c-84.12 0-162.92 9.04-221.84 25.44-63.32 17.6-77.04 36.64-77.04 40.44s13.72 22.8 77 40.44c58.96 16.4 137.72 25.44 221.84 25.44s162.92-9.04 221.84-25.44C794.28 285.92 808 266.88 808 263.12s-13.72-22.8-77-40.44c-58.96-16.4-137.72-25.44-221.84-25.44z" fill="#99999D" p-id="1314"></path><path d="M509.16 547.68c-167.04 0-346.84-35.64-346.84-113.88V268.32c0-13.24 10.76-24 24-24s24 10.76 24 24v165.52c0 3.76 13.72 22.8 77 40.44 58.96 16.4 137.72 25.44 221.84 25.44s162.92-9.04 221.84-25.44c63.28-17.64 77-36.68 77-40.44V268.32c0-13.24 10.76-24 24-24s24 10.76 24 24v165.52c0 78.2-179.8 113.84-346.84 113.84z" fill="#99999D" p-id="1315"></path><path d="M509.16 720.92c-167.04 0-346.84-35.64-346.84-113.88v-165.52c0-13.24 10.76-24 24-24s24 10.76 24 24v165.52c0 3.76 13.72 22.8 77 40.44 58.96 16.4 137.72 25.44 221.84 25.44 13.24 0 24 10.76 24 24s-10.76 24-24 24z" fill="#99999D" p-id="1316"></path><path d="M509.16 890.04c-167.04 0-346.84-35.64-346.84-113.88v-165.52c0-13.24 10.76-24 24-24s24 10.76 24 24v165.52c0 3.76 13.72 22.8 77 40.44 58.96 16.4 137.72 25.44 221.84 25.44 13.24 0 24 10.76 24 24s-10.76 24-24 24z" fill="#99999D" p-id="1317"></path><path d="M707.24 416.04m-23.84 0a23.84 23.84 0 1 0 47.68 0 23.84 23.84 0 1 0-47.68 0Z" fill="#99999D" p-id="1318"></path></svg>