<?xml version="1.0" standalone="no"?><!DOCTYPE svg PUBLIC "-//W3C//DTD SVG 1.1//EN" "http://www.w3.org/Graphics/SVG/1.1/DTD/svg11.dtd"><svg t="1665029645763" class="icon" viewBox="0 0 1024 1024" version="1.1" xmlns="http://www.w3.org/2000/svg" p-id="2261" xmlns:xlink="http://www.w3.org/1999/xlink" width="200" height="200"><path d="M692.2752 314.7264H331.7248a24.4224 24.4224 0 1 0 0 48.7424h360.5504c13.5168 0 24.5248-10.9056 24.5248-24.3712s-11.008-24.3712-24.5248-24.3712zM692.2752 495.7696H331.7248a24.4224 24.4224 0 0 0 0 48.7936h360.5504a24.4224 24.4224 0 1 0 0-48.7936z" p-id="2262"></path><path d="M841.0112 102.4H182.9888A54.784 54.784 0 0 0 128 157.0304v652.5952h0.3584c0 61.7984 50.432 111.9232 112.64 111.9232h652.3392a2.6112 2.6112 0 0 0 2.6112-2.56v-204.4416h0.0512V157.0304A54.784 54.784 0 0 0 841.0112 102.4z m2.5088 767.1296H240.9984a60.1088 60.1088 0 0 1-60.2624-59.8528c0-33.024 27.0336-59.8528 60.2624-59.8528h602.5216v119.7056z m1.28-171.8272H240.9984c-22.8352 0-44.032 6.8608-61.7984 18.4832V157.0304c0-2.0992 1.6896-3.7888 3.7888-3.7888h658.0224c2.0992 0 3.7888 1.6896 3.7888 3.7888v540.672z" p-id="2263"></path></svg>