<?xml version="1.0" standalone="no"?><!DOCTYPE svg PUBLIC "-//W3C//DTD SVG 1.1//EN" "http://www.w3.org/Graphics/SVG/1.1/DTD/svg11.dtd"><svg t="1665029712874" class="icon" viewBox="0 0 1024 1024" version="1.1" xmlns="http://www.w3.org/2000/svg" p-id="2655" xmlns:xlink="http://www.w3.org/1999/xlink" width="200" height="200"><path d="M128 832h768V192H128v640z" fill="#000000" p-id="2656"></path><path d="M85.333333 192a42.666667 42.666667 0 0 1 42.666667-42.666667h768a42.666667 42.666667 0 0 1 42.666667 42.666667v640a42.666667 42.666667 0 0 1-42.666667 42.666667H128a42.666667 42.666667 0 0 1-42.666667-42.666667V192z m85.333334 42.666667v554.666666h682.666666V234.666667H170.666667z" fill="#000000" p-id="2657"></path><path d="M618.666667 384h213.333333v85.333333H618.666667v-85.333333zM618.666667 554.666667h213.333333v85.333333H618.666667v-85.333333zM362.666667 405.333333a42.666667 42.666667 0 1 0 0 85.333334 42.666667 42.666667 0 0 0 0-85.333334z m-128 42.666667a128 128 0 1 1 256 0 128 128 0 0 1-256 0z" fill="#FFFFFF" p-id="2658"></path><path d="M362.666667 618.666667a85.333333 85.333333 0 0 0-85.333334 85.333333H192a170.666667 170.666667 0 1 1 341.333333 0h-85.333333a85.333333 85.333333 0 0 0-85.333333-85.333333z" fill="#FFFFFF" p-id="2659"></path></svg>