<?xml version="1.0" standalone="no"?><!DOCTYPE svg PUBLIC "-//W3C//DTD SVG 1.1//EN" "http://www.w3.org/Graphics/SVG/1.1/DTD/svg11.dtd"><svg t="1665029717283" class="icon" viewBox="0 0 1024 1024" version="1.1" xmlns="http://www.w3.org/2000/svg" p-id="2803" xmlns:xlink="http://www.w3.org/1999/xlink" width="200" height="200"><path d="M512 832L128 414.229333 237.333333 192h549.333334L896 414.229333 512 832z" fill="#000000" p-id="2804"></path><path d="M199.04 173.162667A42.666667 42.666667 0 0 1 237.354667 149.333333h549.333333a42.666667 42.666667 0 0 1 38.272 23.829334l109.354667 222.229333a42.666667 42.666667 0 0 1-6.890667 47.701333l-384 417.770667a42.666667 42.666667 0 0 1-62.826667 0l-384-417.770667a42.666667 42.666667 0 0 1-6.869333-47.701333L199.061333 173.162667zM263.893333 234.666667L179.2 406.848 512 768.96 844.821333 406.826667 760.106667 234.666667H263.893333z" fill="#000000" p-id="2805"></path><path d="M408.213333 387.733333L512 501.909333l103.808-114.176 63.146667 57.386667-135.381334 148.906667a42.666667 42.666667 0 0 1-63.146666 0l-135.36-148.906667 63.146666-57.386667z" fill="#FFFFFF" p-id="2806"></path></svg>