<?xml version="1.0" standalone="no"?><!DOCTYPE svg PUBLIC "-//W3C//DTD SVG 1.1//EN" "http://www.w3.org/Graphics/SVG/1.1/DTD/svg11.dtd"><svg t="1658823426438" class="icon" viewBox="0 0 1024 1024" version="1.1" xmlns="http://www.w3.org/2000/svg" p-id="2124" xmlns:xlink="http://www.w3.org/1999/xlink" width="200" height="200"><defs><style type="text/css">@font-face { font-family: feedback-iconfont; src: url("//at.alicdn.com/t/font_1031158_u69w8yhxdu.woff2?t=1630033759944") format("woff2"), url("//at.alicdn.com/t/font_1031158_u69w8yhxdu.woff?t=1630033759944") format("woff"), url("//at.alicdn.com/t/font_1031158_u69w8yhxdu.ttf?t=1630033759944") format("truetype"); }
</style></defs><path d="M512 846.250667a65.28 65.28 0 0 1-25.6-5.162667 65.706667 65.706667 0 0 1-11.178667-6.058667 66.517333 66.517333 0 0 1-9.728-8.021333 66.048 66.048 0 0 1-8.021333-9.728 65.621333 65.621333 0 0 1-6.058667-11.178667 65.365333 65.365333 0 0 1-5.162666-25.6 65.365333 65.365333 0 0 1 5.162666-25.6 65.621333 65.621333 0 0 1 6.058667-11.178666 66.048 66.048 0 0 1 8.021333-9.728 66.517333 66.517333 0 0 1 9.728-8.021334 65.664 65.664 0 0 1 11.178667-6.058666 65.28 65.28 0 0 1 25.6-5.162667 65.365333 65.365333 0 0 1 25.6 5.162667 65.578667 65.578667 0 0 1 11.178667 6.058666 66.005333 66.005333 0 0 1 9.728 8.021334 66.218667 66.218667 0 0 1 8.021333 9.728 65.536 65.536 0 0 1 6.058667 11.178666 65.365333 65.365333 0 0 1 5.162666 25.6 65.365333 65.365333 0 0 1-5.162666 25.6 65.536 65.536 0 0 1-6.058667 11.178667 66.218667 66.218667 0 0 1-8.021333 9.728 66.005333 66.005333 0 0 1-9.728 8.021333 65.578667 65.578667 0 0 1-11.178667 6.058667 65.365333 65.365333 0 0 1-25.6 5.162667z m169.728-82.090667l-174.250667-174.250667a189.610667 189.610667 0 0 0-130.261333 56.917334L333.226667 602.837333l0.298666-0.298666v-0.213334a253.824 253.824 0 0 1 37.290667-30.762666 251.733333 251.733333 0 0 1 42.666667-23.253334 251.733333 251.733333 0 0 1 39.082666-12.8l-85.333333-85.333333a360.192 360.192 0 0 0-110.933333 76.202667l-43.52-43.52 0.256-0.256 0.298666-0.298667a424.789333 424.789333 0 0 1 62.464-51.541333 422.4 422.4 0 0 1 45.397334-26.709334L233.472 316.330667c-8.533333 5.034667-16.682667 10.368-24.746667 15.829333a546.432 546.432 0 0 0-80.213333 66.389333L85.333333 354.858667l0.426667-0.426667c13.610667-13.568 27.989333-26.666667 42.666667-38.912a570.794667 570.794667 0 0 1 60.501333-43.904L139.178667 221.866667l43.392-43.392L725.333333 720.768l-43.392 43.392z m85.333333-238.122667A358.058667 358.058667 0 0 0 512 419.968h-0.896l-57.386667-57.386667c5.034667-0.682667 10.154667-1.322667 15.104-1.792a428.757333 428.757333 0 0 1 43.136-2.176 428.714667 428.714667 0 0 1 43.136 2.176 422.954667 422.954667 0 0 1 41.898667 6.4 420.053333 420.053333 0 0 1 79.189333 24.576 421.589333 421.589333 0 0 1 71.68 38.912A424.746667 424.746667 0 0 1 810.666667 482.176l0.298666 0.298667-43.52 43.52z m128-128A537.6 537.6 0 0 0 512 239.146667a539.136 539.136 0 0 0-158.165333 23.552L305.322667 214.144a594.474667 594.474667 0 0 1 85.248-24.149333 604.074667 604.074667 0 0 1 59.733333-9.130667 612.096 612.096 0 0 1 61.653333-3.114667 612.010667 612.010667 0 0 1 61.610667 3.114667 604.117333 604.117333 0 0 1 59.733333 9.130667 600.448 600.448 0 0 1 304.725334 164.309333l0.341333 0.341333-43.562667 43.562667z" p-id="2125"></path></svg>