<?xml version="1.0" standalone="no"?><!DOCTYPE svg PUBLIC "-//W3C//DTD SVG 1.1//EN" "http://www.w3.org/Graphics/SVG/1.1/DTD/svg11.dtd"><svg t="1665029258164" class="icon" viewBox="0 0 1024 1024" version="1.1" xmlns="http://www.w3.org/2000/svg" p-id="891" xmlns:xlink="http://www.w3.org/1999/xlink" width="200" height="200"><path d="M512.003612 0C229.233602 0 0.001204 229.232398 0.001204 512.002408c0 282.767602 229.232398 511.997592 512.002408 511.997592s512-229.22999 512-511.997592C1024.004817 229.232398 794.773623 0 512.003612 0z m193.681141 757.099453a58.956277 58.956277 0 0 1-50.150344 27.967535H368.469204a58.961093 58.961093 0 0 1-52.733242-85.333133l33.227253-66.455709a32.634812 32.634812 0 0 1 2.081971-3.587156 220.991211 220.991211 0 0 0 143.890837 52.975275h34.132771c54.901911 0 105.148588-19.952728 143.88602-52.992133a35.196034 35.196034 0 0 1 2.083175 3.58234l33.229661 66.478587a58.964706 58.964706 0 0 1-2.582897 57.364394z m-193.682345-108.565959c-113.103187 0-204.801445-91.698258-204.801445-204.800241 0-113.100779 91.698258-204.799037 204.801445-204.799037 113.100779 0 204.799037 91.698258 204.799037 204.799037 0 113.101983-91.698258 204.800241-204.799037 204.800241z" fill="#070001" p-id="892"></path><path d="M512.002408 392.5353c-47.126729 0.002408-85.324704 38.205199-85.324703 85.331929 0 47.124321 38.199178 85.325908 85.324703 85.330724a85.336745 85.336745 0 0 0 73.904567-42.664158 85.322295 85.322295 0 0 0 0-85.336745 85.317479 85.317479 0 0 0-73.904567-42.66175z m1.80863 119.4647a34.137588 34.137588 0 0 1-29.567847-51.205178 34.138792 34.138792 0 0 1 29.567847-17.062773c18.844912 0.004817 34.127955 15.286655 34.127955 34.13518s-15.281839 34.127955-34.127955 34.132771z" fill="#070001" p-id="893"></path><path d="M513.811038 443.733253a34.139996 34.139996 0 0 0-29.567847 17.062773 34.137588 34.137588 0 0 0 29.567847 51.205178c18.844912-0.004817 34.127955-15.284247 34.127955-34.132771s-15.281839-34.130363-34.127955-34.13518z" fill="#FFFFFF" p-id="894"></path></svg>