<?xml version="1.0" standalone="no"?><!DOCTYPE svg PUBLIC "-//W3C//DTD SVG 1.1//EN" "http://www.w3.org/Graphics/SVG/1.1/DTD/svg11.dtd"><svg t="1665029360927" class="icon" viewBox="0 0 1024 1024" version="1.1" xmlns="http://www.w3.org/2000/svg" p-id="3657" xmlns:xlink="http://www.w3.org/1999/xlink" width="200" height="200"><path d="M690.8416 863.5392c-54.528 0-105.9328-15.8208-154.9824-35.4816l-0.8704-0.3584c-125.7472-57.0368-209.0496-22.1184-282.5728 8.704-8.3968 3.5328-16.64 6.9632-24.7808 10.24-25.088 10.0352-52.6336 7.5776-73.6256-6.656-19.0464-12.9024-30.0032-33.792-30.0032-57.3952V429.4656c0-28.7232 16.896-54.528 43.008-65.6896 24.832-10.6496 50.0224-18.6368 74.8544-23.808 11.0592-2.304 21.9136 4.8128 24.2176 15.872 2.304 11.0592-4.8128 21.9136-15.872 24.2176-22.1696 4.608-44.7488 11.776-67.0208 21.3504-11.0592 4.7104-18.176 15.7696-18.176 28.0576v353.1264c0 12.6976 6.5024 19.7632 11.9808 23.4496 9.5744 6.5024 23.1936 7.4752 35.4304 2.56 7.936-3.1744 15.9744-6.5536 24.1664-9.984 77.1072-32.3584 173.1072-72.5504 314.88-8.3968 82.4832 32.9728 180.0704 60.9792 294.3488-23.3984 5.4784-4.0448 8.9088-12.3904 8.9088-21.8624l-3.6352-330.24c0-11.3152-5.7344-21.2992-15.36-26.88-9.6768-5.5808-20.736-5.632-30.4128-0.1024-8.704 4.9664-17.4592 9.7792-25.9584 14.2848a20.49536 20.49536 0 0 1-27.648-8.6016 20.43904 20.43904 0 0 1 8.6016-27.648c8.0896-4.2496 16.4352-8.8064 24.6784-13.568 22.3232-12.8 48.9984-12.6976 71.3216 0.2048 22.4256 13.0048 35.7888 36.1984 35.7888 62.1056l3.6352 330.24c0 22.7328-9.5232 43.2128-25.4976 55.04-63.6416 46.8992-123.1872 63.744-179.4048 63.744z" fill="#888888" p-id="3658"></path><path d="M510.9248 666.0096c-44.5952 0-193.28-146.3808-193.28-309.6064 0-106.5984 86.7328-193.28 193.28-193.28 106.5984 0 193.28 86.7328 193.28 193.28 0 88.4736-48.7424 169.5744-77.7728 210.0736-34.3552 47.9232-85.1968 99.5328-115.5072 99.5328z m1.6384-40.8064z m-2.7136-0.0512z m1.0752-421.0688c-84.0192 0-152.32 68.352-152.32 152.32 0 142.1824 125.7984 258.6112 152.5248 268.3392 10.8032-3.9424 46.848-31.744 85.2992-86.7328 24.9856-35.6864 66.816-106.752 66.816-181.6064 0.0512-83.968-68.3008-152.32-152.32-152.32z" fill="#888888" p-id="3659"></path><path d="M510.9248 444.5696c-45.5168 0-82.5856-37.0688-82.5856-82.5856s37.0688-82.5856 82.5856-82.5856 82.5856 37.0176 82.5856 82.5856-37.0176 82.5856-82.5856 82.5856z m0-124.2112c-22.9376 0-41.6256 18.688-41.6256 41.6256s18.688 41.6256 41.6256 41.6256 41.6256-18.688 41.6256-41.6256-18.688-41.6256-41.6256-41.6256z" fill="#888888" p-id="3660"></path></svg>