<?xml version="1.0" standalone="no"?><!DOCTYPE svg PUBLIC "-//W3C//DTD SVG 1.1//EN" "http://www.w3.org/Graphics/SVG/1.1/DTD/svg11.dtd"><svg t="1665029732134" class="icon" viewBox="0 0 1024 1024" version="1.1" xmlns="http://www.w3.org/2000/svg" p-id="2948" xmlns:xlink="http://www.w3.org/1999/xlink" width="200" height="200"><path d="M128 170.666667h768v682.666666H128V170.666667z" fill="#000000" p-id="2949"></path><path d="M85.333333 170.666667a42.666667 42.666667 0 0 1 42.666667-42.666667h768a42.666667 42.666667 0 0 1 42.666667 42.666667v682.666666a42.666667 42.666667 0 0 1-42.666667 42.666667H128a42.666667 42.666667 0 0 1-42.666667-42.666667V170.666667z m85.333334 42.666666v597.333334h682.666666V213.333333H170.666667z" fill="#000000" p-id="2950"></path><path d="M469.333333 426.666667a85.333333 85.333333 0 1 1-170.666666 0 85.333333 85.333333 0 0 1 170.666666 0z" fill="#FFFFFF" p-id="2951"></path><path d="M384 384a42.666667 42.666667 0 1 0 0 85.333333 42.666667 42.666667 0 0 0 0-85.333333z m-128 42.666667a128 128 0 1 1 256 0 128 128 0 0 1-256 0zM609.834667 524.501333a42.666667 42.666667 0 0 1 50.602666-7.296l234.666667 128 0.277333 0.170667 96 53.333333-41.429333 74.581334-95.872-53.248-206.485333-112.64-350.762667 350.762666-60.330667-60.330666 373.333334-373.333334z" fill="#FFFFFF" p-id="2952"></path></svg>