<?xml version="1.0" standalone="no"?><!DOCTYPE svg PUBLIC "-//W3C//DTD SVG 1.1//EN" "http://www.w3.org/Graphics/SVG/1.1/DTD/svg11.dtd"><svg t="1665029503929" class="icon" viewBox="0 0 1024 1024" version="1.1" xmlns="http://www.w3.org/2000/svg" p-id="1300" xmlns:xlink="http://www.w3.org/1999/xlink" width="200" height="200"><path d="M447.7184 484.61312H140.8a43.47392 43.47392 0 0 1-43.52-43.34592V135.50592A43.47392 43.47392 0 0 1 140.8 92.16h306.9184a43.47904 43.47904 0 0 1 43.52 43.34592v305.76128a43.47904 43.47904 0 0 1-43.52 43.34592zM159.58016 422.5536h269.34784V154.22464H159.58016V422.5536zM447.7184 926.72H140.8a43.47392 43.47392 0 0 1-43.52-43.34592v-305.76128a43.47392 43.47392 0 0 1 43.52-43.34592h306.9184a43.47904 43.47904 0 0 1 43.52 43.34592v305.76128a43.47904 43.47904 0 0 1-43.52 43.34592z m-288.13824-62.06464h269.34784v-268.32384H159.58016v268.32384zM888.32 484.61312h-306.9184a43.47904 43.47904 0 0 1-43.52-43.34592V135.50592a43.47904 43.47904 0 0 1 43.52-43.34592H888.32a43.47392 43.47392 0 0 1 43.52 43.34592v305.76128a43.47392 43.47392 0 0 1-43.52 43.34592zM600.192 422.5536h269.34784V154.22464h-269.34784V422.5536z m4.8384 480.99328a31.08864 31.08864 0 0 1-31.15008-31.0272v-147.11296a31.15008 31.15008 0 0 1 62.30016 0v147.10784a31.08864 31.08864 0 0 1-31.15008 31.0272z m257.08544 0a31.08864 31.08864 0 0 1-31.15008-31.0272v-147.11296a31.15008 31.15008 0 0 1 62.30016 0v147.10784a31.08864 31.08864 0 0 1-31.15008 31.0272z m-127.24736-161.62304a31.08864 31.08864 0 0 1-31.15008-31.03232v-147.10784a31.15008 31.15008 0 0 1 62.30016 0v147.10272a31.09376 31.09376 0 0 1-31.15008 31.03232z" fill="#4A4A4A" p-id="1301"></path><path d="M334.336 367.95392H259.584a43.52 43.52 0 0 1-43.5712-43.34592V250.15808a43.52 43.52 0 0 1 43.5712-43.3664h74.752a43.52 43.52 0 0 1 43.55584 43.36128V324.608a43.52 43.52 0 0 1-43.55584 43.34592zM278.3744 305.86368h37.15072v-36.98176H278.3744v36.98688z m55.9616 504.35584H259.584a43.52 43.52 0 0 1-43.55584-43.36128v-74.43456a43.52 43.52 0 0 1 43.55584-43.36128h74.752a43.52 43.52 0 0 1 43.55584 43.36128v74.43456a43.52 43.52 0 0 1-43.55584 43.36128zM278.3744 748.1344h37.15072v-36.9664H278.3744v36.98688z m496.97792-380.18048h-74.752a43.52 43.52 0 0 1-43.55072-43.35616V250.15808a43.52 43.52 0 0 1 43.55072-43.36128h74.752a43.52 43.52 0 0 1 43.55072 43.36128V324.608a43.52 43.52 0 0 1-43.55072 43.34592z m-55.95648-62.09024h37.15072v-36.98176h-37.15072v36.98688z m-111.38048 349.87008a31.11424 31.11424 0 0 1-31.1808-31.04768v-61.81888a31.1808 31.1808 0 0 1 62.3616 0v61.81888a31.11424 31.11424 0 0 1-31.1808 31.04768z m257.32608 0a31.10912 31.10912 0 0 1-31.17568-31.04768v-61.81888a31.1808 31.1808 0 0 1 62.35648 0v61.81888a31.11424 31.11424 0 0 1-31.1808 31.04768z m-127.37024 247.02464a31.10912 31.10912 0 0 1-31.17568-31.04256v-61.824a31.1808 31.1808 0 0 1 62.35648 0v61.824a31.11424 31.11424 0 0 1-31.1808 31.04256z" fill="#FF7214" p-id="1302"></path></svg>