<?xml version="1.0" standalone="no"?><!DOCTYPE svg PUBLIC "-//W3C//DTD SVG 1.1//EN" "http://www.w3.org/Graphics/SVG/1.1/DTD/svg11.dtd"><svg t="1665029380357" class="icon" viewBox="0 0 1024 1024" version="1.1" xmlns="http://www.w3.org/2000/svg" p-id="3820" xmlns:xlink="http://www.w3.org/1999/xlink" width="200" height="200"><path d="M347.136 881.408H179.1488c-11.3152 0-20.48-9.1648-20.48-20.48V348.2624c0-11.3152 9.1648-20.48 20.48-20.48H347.136c11.3152 0 20.48 9.1648 20.48 20.48v512.6656c0 11.3152-9.1648 20.48-20.48 20.48z m-147.5072-40.96H326.656V368.7424H199.6288v471.7056zM604.416 881.408H436.4288c-11.3152 0-20.48-9.1648-20.48-20.48v-295.424c0-11.3152 9.1648-20.48 20.48-20.48h168.0384c11.3152 0 20.48 9.1648 20.48 20.48v295.424c-0.0512 11.3152-9.216 20.48-20.5312 20.48z m-147.5072-40.96h127.0784v-254.464H456.9088v254.464zM861.696 881.408h-168.0384c-11.3152 0-20.48-9.1648-20.48-20.48V157.952c0-11.3152 9.1648-20.48 20.48-20.48h168.0384c11.3152 0 20.48 9.1648 20.48 20.48v702.976c0 11.3152-9.1648 20.48-20.48 20.48z m-147.5584-40.96h127.0784V178.432h-127.0784v662.016z" fill="#888888" p-id="3821"></path></svg>