<?xml version="1.0" standalone="no"?><!DOCTYPE svg PUBLIC "-//W3C//DTD SVG 1.1//EN" "http://www.w3.org/Graphics/SVG/1.1/DTD/svg11.dtd"><svg t="1658822869505" class="icon" viewBox="0 0 1024 1024" version="1.1" xmlns="http://www.w3.org/2000/svg" p-id="2143" xmlns:xlink="http://www.w3.org/1999/xlink" width="200" height="200"><defs><style type="text/css">@font-face { font-family: feedback-iconfont; src: url("//at.alicdn.com/t/font_1031158_u69w8yhxdu.woff2?t=1630033759944") format("woff2"), url("//at.alicdn.com/t/font_1031158_u69w8yhxdu.woff?t=1630033759944") format("woff"), url("//at.alicdn.com/t/font_1031158_u69w8yhxdu.ttf?t=1630033759944") format("truetype"); }
</style></defs><path d="M835.177305 383.092199l-83.517731-14.524823C746.212766 179.744681 544.680851 9.078014 535.602837 1.815603c-12.70922-10.893617-32.680851-10.893617-45.390071 0-9.078014 7.262411-212.425532 176.113475-216.056738 366.751773l-83.51773 14.524823c-18.156028 3.631206-30.865248 18.156028-30.865248 36.312056v205.163121c0 10.893617 5.446809 19.971631 12.70922 27.234042 7.262411 7.262411 18.156028 9.078014 29.049645 7.262412l156.141844-27.234043c41.758865 47.205674 96.22695 74.439716 154.326241 74.439717s112.567376-25.41844 154.326241-74.439717l156.141844 27.234043c10.893617 1.815603 21.787234-1.815603 29.049645-7.262412 9.078014-7.262411 12.70922-16.340426 12.70922-27.234042V419.404255c0-18.156028-12.70922-34.496454-29.049645-36.312056zM628.198582 740.765957H395.801418c-19.971631 0-36.312057 16.340426-36.312056 36.312057v125.276596c0 14.524823 9.078014 29.049645 23.602837 34.496454 14.524823 5.446809 30.865248 0 39.943262-10.893617l18.156028-21.787234 36.312057 96.22695c5.446809 14.524823 18.156028 23.602837 34.496454 23.602837s29.049645-9.078014 34.496454-23.602837l36.312057-96.22695 18.156028 21.787234c9.078014 12.70922 25.41844 16.340426 39.943262 10.893617 14.524823-5.446809 23.602837-18.156028 23.602837-34.496454v-125.276596c0-19.971631-16.340426-36.312057-36.312056-36.312057z" fill="#4C4C4C" p-id="2144"></path></svg>