<?xml version="1.0" standalone="no"?><!DOCTYPE svg PUBLIC "-//W3C//DTD SVG 1.1//EN" "http://www.w3.org/Graphics/SVG/1.1/DTD/svg11.dtd"><svg t="1665029303346" class="icon" viewBox="0 0 1024 1024" version="1.1" xmlns="http://www.w3.org/2000/svg" p-id="3171" xmlns:xlink="http://www.w3.org/1999/xlink" width="200" height="200"><path d="M713.5232 871.7824H284.16c-27.9552 0-50.688-22.7328-50.688-50.688V482.2528a40.2176 40.2176 0 0 1-23.808 7.7312c-10.8544 0-21.0432-4.2496-28.7232-11.8784L81.2032 378.368c-15.8208-15.8208-15.8208-41.6256 0-57.4464l164.608-164.5056c4.5056-4.4032 11.2128-8.0896 17.152-9.4208 13.8752-3.072 24.064-2.7136 32.256-2.4064 1.9968 0.0512 3.9424 0.1536 5.8368 0.1536h39.8848c6.0928 0 11.8784 2.7136 15.7696 7.424a184.2176 184.2176 0 0 0 142.1824 66.8672c55.1424 0 106.9568-24.3712 142.1824-66.8672 3.8912-4.7104 9.6768-7.424 15.7696-7.424h44.544c1.9456 0 3.84-0.1024 5.8368-0.1536 8.1408-0.3072 18.3296-0.6656 32.256 2.4064 5.9392 1.3312 12.6464 5.0176 17.152 9.4208l7.168 7.0656 157.3888 157.3888c15.8208 15.8208 15.8208 41.6256 0 57.4464l-99.6864 99.6864c-15.7696 15.7696-41.3696 15.8208-57.2416 0.2048v342.784c0 28.0576-22.784 50.7904-50.7392 50.7904zM253.952 413.0816c2.6624 0 5.3248 0.512 7.8336 1.536 7.68 3.1744 12.6464 10.6496 12.6464 18.944v387.5328c0 5.376 4.352 9.728 9.728 9.728h429.4144a9.728 9.728 0 0 0 9.728-9.728V428.8512c0-8.2944 4.9664-15.7696 12.6464-18.944a20.4288 20.4288 0 0 1 22.3232 4.4544l34.7648 34.7648 98.9696-99.4816-163.072-162.9696c-7.8848-1.536-13.568-1.3312-20.1216-1.0752-2.5088 0.1024-4.9664 0.2048-7.3728 0.2048h-35.2256a225.01376 225.01376 0 0 1-167.3216 74.24c-64.0512 0-124.5184-26.9312-167.3216-74.24H301.056c-2.4064 0-4.864-0.1024-7.3728-0.2048-6.5536-0.256-12.288-0.4608-20.1216 1.0752l-6.144 6.0416-157.184 157.1328L209.92 449.0752l29.5936-30.0544c3.84-3.8912 9.0624-5.9392 14.4384-5.9392z m638.2592-63.6416l14.4896 14.4896-14.4896-14.4896z m-164.352-163.7888s0 0.0512 0 0z" fill="#888888" p-id="3172"></path><path d="M467.3536 790.8352H353.9968a30.6176 30.6176 0 0 1-30.5664-30.5664v-211.0464c0-11.3152 9.1648-20.48 20.48-20.48s20.48 9.1648 20.48 20.48v200.6528h102.9632c11.3152 0 20.48 9.1648 20.48 20.48s-9.1648 20.48-20.48 20.48z" fill="#888888" p-id="3173"></path></svg>