<?xml version="1.0" standalone="no"?><!DOCTYPE svg PUBLIC "-//W3C//DTD SVG 1.1//EN" "http://www.w3.org/Graphics/SVG/1.1/DTD/svg11.dtd"><svg t="1665029289994" class="icon" viewBox="0 0 1024 1024" version="1.1" xmlns="http://www.w3.org/2000/svg" p-id="3010" xmlns:xlink="http://www.w3.org/1999/xlink" width="200" height="200"><path d="M771.4816 499.0464h-176.5888c-11.3152 0-20.48-9.1648-20.48-20.48s9.1648-20.48 20.48-20.48h176.5888c36.1984 0 65.6384-29.44 65.6384-65.6384V261.9392c0-24.32-19.7632-44.0832-44.0832-44.0832H196.6592c-24.32 0-44.0832 19.7632-44.0832 44.0832v130.5088c0 36.1984 29.44 65.6384 65.6384 65.6384h176.9984c11.3152 0 20.48 9.1648 20.48 20.48s-9.1648 20.48-20.48 20.48H218.1632c-58.7776 0-106.5984-47.8208-106.5984-106.5984V261.9392c0-46.8992 38.144-85.0432 85.0432-85.0432h596.3264c46.8992 0 85.0432 38.144 85.0432 85.0432v130.5088c0.1024 58.7776-47.7184 106.5984-106.496 106.5984z" fill="#888888" p-id="3011"></path><path d="M494.848 591.0016c-61.2864 0-111.1552-49.8688-111.1552-111.1552s49.8688-111.1552 111.1552-111.1552 111.1552 49.8688 111.1552 111.1552-49.8688 111.1552-111.1552 111.1552z m0-181.3504c-38.7072 0-70.1952 31.488-70.1952 70.1952 0 38.7072 31.488 70.1952 70.1952 70.1952s70.1952-31.488 70.1952-70.1952c0-38.7072-31.488-70.1952-70.1952-70.1952z" fill="#888888" p-id="3012"></path><path d="M771.4816 850.5856H218.1632c-58.7776 0-106.5984-47.8208-106.5984-106.5984v-209.5616c0-11.3152 9.1648-20.48 20.48-20.48s20.48 9.1648 20.48 20.48v209.5616c0 36.1984 29.44 65.6384 65.6384 65.6384h553.3184c36.1984 0 65.6384-29.44 65.6384-65.6384v-209.5616c0-11.3152 9.1648-20.48 20.48-20.48s20.48 9.1648 20.48 20.48v209.5616c0 58.7776-47.8208 106.5984-106.5984 106.5984z" fill="#888888" p-id="3013"></path></svg>