<?xml version="1.0" standalone="no"?><!DOCTYPE svg PUBLIC "-//W3C//DTD SVG 1.1//EN" "http://www.w3.org/Graphics/SVG/1.1/DTD/svg11.dtd"><svg t="1665029423697" class="icon" viewBox="0 0 1024 1024" version="1.1" xmlns="http://www.w3.org/2000/svg" p-id="1574" xmlns:xlink="http://www.w3.org/1999/xlink" width="200" height="200"><path d="M514.56 82.944a432.4864 432.4864 0 0 1 374.86592 217.98912h-90.0352v59.3408h189.88544V170.3936h-59.3408v76.6208A494.08 494.08 0 0 0 20.48 514.56h62.464a432.128 432.128 0 0 1 431.616-431.616z m431.616 431.616a431.6416 431.6416 0 0 1-806.70208 213.62176h90.25536v-59.3408H39.84384v189.88544h59.3408v-77.1072A493.88032 493.88032 0 0 0 1008.64 514.56h-62.464z" fill="#074D9C" p-id="1575"></path><path d="M649.3184 334.89408l-68.00384 145.29536H642.048V539.648h-86.016l-6.79936 13.65504v17.06496H642.048v59.48416h-92.79488v64.3584H470.07744v-64.3584H376.832V570.368h93.24544v-17.05984l-5.34528-13.66016H376.832V480.18944h70.41024L379.7248 334.89408H461.312l52.48 141.39392h0.9728l54.40512-141.3888h80.14848z" fill="#F8B62D" p-id="1576"></path></svg>