<?xml version="1.0" standalone="no"?><!DOCTYPE svg PUBLIC "-//W3C//DTD SVG 1.1//EN" "http://www.w3.org/Graphics/SVG/1.1/DTD/svg11.dtd"><svg t="1665029419687" class="icon" viewBox="0 0 1024 1024" version="1.1" xmlns="http://www.w3.org/2000/svg" p-id="1434" xmlns:xlink="http://www.w3.org/1999/xlink" width="200" height="200"><path d="M895.02208 1008.64H128.96256a108.928 108.928 0 0 1-108.544-109.0816V129.536A108.928 108.928 0 0 1 128.96256 20.48h766.05952a108.928 108.928 0 0 1 108.544 109.08672v769.98656a108.92288 108.92288 0 0 1-108.544 109.08672zM128.96256 84.62848A44.85632 44.85632 0 0 0 84.2752 129.536v770.01728a44.85632 44.85632 0 0 0 44.68736 44.91776h766.05952a44.85632 44.85632 0 0 0 44.68736-44.91776V129.536a44.85632 44.85632 0 0 0-44.68736-44.91776H128.96256z" fill="#074D9C" p-id="1435"></path><path d="M741.44256 467.93216H805.376L617.6512 279.552l-42.9568 43.10016 80.83456 81.10592H217.088v64.17408h524.35456z m-460.42112 93.93152H217.088l187.74528 188.3648 42.9568-43.10016-80.83968-81.1008h438.4256v-64.16384H281.02144z" fill="#F8B62D" p-id="1436"></path></svg>