<?xml version="1.0" standalone="no"?><!DOCTYPE svg PUBLIC "-//W3C//DTD SVG 1.1//EN" "http://www.w3.org/Graphics/SVG/1.1/DTD/svg11.dtd"><svg t="1665029396566" class="icon" viewBox="0 0 1024 1024" version="1.1" xmlns="http://www.w3.org/2000/svg" p-id="866" xmlns:xlink="http://www.w3.org/1999/xlink" width="200" height="200"><path d="M962.56 944.85504V158.72h-198.94784v786.13504h-152.13568V440.32H412.52352v504.53504H260.38784v-258.13504H61.44v258.13504H20.48V1003.52h983.04v-58.66496h-40.96z m-842.60352 0v-199.47008h81.92v199.47008h-81.92z m351.08352 0V498.98496h81.92v445.87008H471.04z m351.08352 0V217.38496h81.92v727.47008h-81.92z" fill="#074D9C" p-id="867"></path><path d="M620.16 20.73088h-122.368V76.3392h76.49792L344.6272 297.10336 250.5472 214.8096 43.8272 421.47328l41.40032 41.37472 167.99744-167.936 93.27616 81.59744 273.65888-263.0656V198.656h55.61856V20.73088h-55.61856z" fill="#F8B62D" p-id="868"></path></svg>