<?xml version="1.0" standalone="no"?><!DOCTYPE svg PUBLIC "-//W3C//DTD SVG 1.1//EN" "http://www.w3.org/Graphics/SVG/1.1/DTD/svg11.dtd"><svg t="1665029625393" class="icon" viewBox="0 0 1024 1024" version="1.1" xmlns="http://www.w3.org/2000/svg" p-id="2121" xmlns:xlink="http://www.w3.org/1999/xlink" width="200" height="200"><path d="M868.3008 179.2H155.6992A53.248 53.248 0 0 0 102.4 232.4992v559.0016A53.248 53.248 0 0 0 155.6992 844.8h712.6016A53.248 53.248 0 0 0 921.6 791.5008V232.4992A53.248 53.248 0 0 0 868.3008 179.2z m0 612.3008H155.6992V419.2256h712.6016v372.2752z m0-423.4752H155.6992V232.4992h712.6016v135.5264z" p-id="2122"></path><path d="M246.4256 683.2128h153.6a25.6 25.6 0 0 0 0-51.2h-153.6a25.6 25.6 0 0 0 0 51.2z" p-id="2123"></path></svg>