<?xml version="1.0" standalone="no"?><!DOCTYPE svg PUBLIC "-//W3C//DTD SVG 1.1//EN" "http://www.w3.org/Graphics/SVG/1.1/DTD/svg11.dtd"><svg t="1658823398206" class="icon" viewBox="0 0 1024 1024" version="1.1" xmlns="http://www.w3.org/2000/svg" p-id="1979" xmlns:xlink="http://www.w3.org/1999/xlink" width="200" height="200"><defs><style type="text/css">@font-face { font-family: feedback-iconfont; src: url("//at.alicdn.com/t/font_1031158_u69w8yhxdu.woff2?t=1630033759944") format("woff2"), url("//at.alicdn.com/t/font_1031158_u69w8yhxdu.woff?t=1630033759944") format("woff"), url("//at.alicdn.com/t/font_1031158_u69w8yhxdu.ttf?t=1630033759944") format("truetype"); }
</style></defs><path d="M446.336 780.501333A65.749333 65.749333 0 0 1 512 714.752a65.749333 65.749333 0 0 1 65.749333 65.749333A65.749333 65.749333 0 0 1 512 846.250667a65.749333 65.749333 0 0 1-65.664-65.749334z m-113.024-177.706666l0.298667-0.298667 0.213333-0.213333a253.738667 253.738667 0 0 1 37.290667-30.762667 252.501333 252.501333 0 0 1 42.666666-23.253333 250.581333 250.581333 0 0 1 47.317334-14.677334 253.909333 253.909333 0 0 1 50.773333-5.12 253.952 253.952 0 0 1 50.816 5.12 250.922667 250.922667 0 0 1 47.317333 14.677334 252.330667 252.330667 0 0 1 42.666667 23.253333 253.738667 253.738667 0 0 1 37.290667 30.762667l0.298666 0.298666-42.922666 42.922667a189.397333 189.397333 0 0 0-134.570667-55.722667 189.269333 189.269333 0 0 0-135.850667 57.002667zM213.333333 482.688l0.256-0.256 0.298667-0.298667a424.746667 424.746667 0 0 1 62.464-51.541333 421.674667 421.674667 0 0 1 71.68-38.912 420.010667 420.010667 0 0 1 79.189333-24.576 423.125333 423.125333 0 0 1 41.898667-6.4A428.672 428.672 0 0 1 512 358.570667a428.714667 428.714667 0 0 1 43.136 2.176 423.125333 423.125333 0 0 1 41.898667 6.4 420.010667 420.010667 0 0 1 79.189333 24.576 421.546667 421.546667 0 0 1 71.68 38.912A425.088 425.088 0 0 1 810.666667 482.176l0.298666 0.298667-43.52 43.52A358.058667 358.058667 0 0 0 512 419.968a358.058667 358.058667 0 0 0-255.36 106.282667z m-128-128l0.469334-0.469333c13.568-13.568 27.989333-26.666667 42.666666-38.912s30.464-23.936 46.421334-34.688a611.797333 611.797333 0 0 1 102.4-55.594667 596.309333 596.309333 0 0 1 113.237333-35.114667 604.16 604.16 0 0 1 59.733333-9.130666A612.096 612.096 0 0 1 512 177.749333a612.053333 612.053333 0 0 1 61.610667 3.114667 604.16 604.16 0 0 1 59.733333 9.130667 600.448 600.448 0 0 1 304.725333 164.309333l0.341334 0.341333-43.562667 43.562667A537.6 537.6 0 0 0 512 239.104a536.661333 536.661333 0 0 0-210.901333 42.666667 542.165333 542.165333 0 0 0-92.074667 50.133333 546.133333 546.133333 0 0 0-80.213333 66.389333z" p-id="1980"></path></svg>